<?xml version="1.0" standalone="no"?>
<!DOCTYPE svg PUBLIC "-//W3C//DTD SVG 20010904//EN"
 "http://www.w3.org/TR/2001/REC-SVG-20010904/DTD/svg10.dtd">
<svg version="1.0" xmlns="http://www.w3.org/2000/svg"
 width="256.000000pt" height="256.000000pt" viewBox="0 0 256.000000 256.000000"
 preserveAspectRatio="xMidYMid meet">
<metadata>
Created by potrace 1.16, written by Peter Selinger 2001-2019
</metadata>
<g transform="translate(0.000000,256.000000) scale(0.100000,-0.100000)"
fill="#000000" stroke="none">
<path d="M0 1280 l0 -1280 1280 0 1280 0 0 1280 0 1280 -1280 0 -1280 0 0
-1280z m1872 698 c3 -30 6 -33 34 -32 l32 2 7 -98 c5 -80 10 -99 23 -102 37
-9 52 2 52 38 0 31 3 34 30 34 27 0 30 3 30 30 l0 30 66 0 65 0 -1 -62 c-3
-131 -4 -128 33 -128 l34 0 6 -97 c4 -54 7 -126 7 -160 l0 -63 -35 0 c-23 0
-35 -5 -34 -12 5 -38 -2 -48 -31 -48 -28 0 -30 -3 -30 -35 l0 -36 -107 0 c-60
0 -207 -3 -328 -7 -143 -5 -223 -3 -228 3 -4 6 -5 20 -2 33 5 20 2 22 -30 22
-32 0 -35 2 -31 24 5 26 -9 36 -49 36 -20 0 -23 6 -27 49 -3 27 -4 98 -4 157
l1 109 30 0 29 1 -3 96 -3 96 61 4 c64 3 71 -1 71 -45 0 -18 6 -22 33 -22 28
0 32 -4 35 -27 3 -23 8 -28 32 -28 27 0 53 -29 27 -31 -9 0 -9 -2 1 -6 6 -2
10 -9 6 -14 -3 -5 53 -9 135 -9 l141 0 0 35 0 35 -135 0 -135 0 0 30 c0 28 -3
30 -35 30 -32 0 -35 2 -35 30 0 28 -3 30 -35 30 -32 0 -35 2 -35 30 l0 30 -70
0 -70 0 0 -29 c0 -28 -2 -29 -65 -36 -64 -6 -65 -7 -65 -36 0 -27 3 -29 35
-29 l35 0 0 -65 0 -65 -34 0 c-34 0 -35 -1 -29 -35 6 -35 5 -35 -31 -35 -36 0
-37 -1 -34 -32 3 -30 6 -33 36 -30 l32 2 0 -65 0 -65 -30 0 c-28 0 -30 -3 -30
-35 l0 -35 68 0 c67 0 68 0 67 -27 0 -24 4 -28 33 -31 28 -3 32 -7 32 -31 l0
-28 -112 -6 c-62 -4 -152 -7 -200 -7 l-88 0 0 30 c0 27 -3 30 -34 30 l-34 0
-6 258 c-4 141 -8 286 -9 322 l-2 65 33 3 c28 3 32 7 32 33 0 16 3 29 8 30 4
1 183 7 397 13 215 7 407 14 427 14 35 2 37 0 40 -30z m-1474 -163 c4 6 13 10
20 9 6 -1 20 -2 29 -3 13 -1 14 -4 5 -13 -7 -7 -12 -19 -12 -27 0 -14 1 -14
10 -1 8 12 10 11 10 -7 0 -13 -4 -23 -10 -23 -5 0 -10 -5 -10 -11 0 -5 5 -7
12 -3 7 5 9 2 5 -8 -7 -19 39 -44 47 -25 5 13 36 -19 36 -37 0 -6 -5 -4 -11 4
-9 13 -10 13 -6 0 2 -9 18 -16 38 -18 37 -4 49 -15 49 -49 0 -19 6 -23 30 -23
26 0 31 -5 36 -30 5 -25 11 -30 35 -30 26 0 29 -4 29 -30 0 -28 3 -30 34 -30
33 0 35 -2 38 -37 3 -36 4 -38 36 -35 l32 4 0 -60 c0 -40 -4 -59 -12 -59 -7 0
-97 -4 -199 -8 l-187 -7 5 25 c3 13 0 28 -6 32 -7 3 -68 7 -136 7 -73 0 -123
4 -119 9 3 5 1 9 -4 9 -5 0 -12 79 -16 176 -7 163 -6 177 11 190 16 13 16 13
1 8 -10 -3 -18 -1 -18 4 0 16 22 18 131 12 55 -3 99 -2 99 3 0 4 -43 7 -96 7
-56 0 -93 4 -89 9 9 15 -16 24 -28 11 -9 -10 -8 -12 6 -7 11 4 16 3 12 -3 -8
-13 -35 -13 -35 -1 0 5 7 17 16 25 14 15 14 16 0 16 -9 0 -16 7 -16 15 0 8 7
15 16 15 8 0 13 -4 10 -8 -6 -11 93 -3 113 8 8 4 23 3 33 -4 13 -7 21 -8 26
-1z m267 -78 c6 -31 9 -33 37 -29 28 4 30 2 25 -17 -3 -13 -1 -19 6 -14 6 4 8
0 4 -10 -5 -14 0 -17 28 -17 28 0 35 -4 36 -20 1 -11 2 -26 3 -32 1 -7 15 -13
31 -13 25 -1 31 -5 33 -28 3 -27 3 -27 -57 -27 l-61 0 0 30 c0 28 -3 30 -35
30 -32 0 -35 2 -35 30 0 30 -13 37 -57 31 -8 -1 -13 10 -13 26 0 15 -5 35 -10
43 -7 11 -10 12 -10 2 0 -8 -9 -12 -22 -10 -17 2 -24 11 -26 31 -3 27 -3 27
57 27 l60 0 6 -33z m1309 -1025 c3 -5 -5 -24 -18 -43 -28 -41 -46 -100 -46
-149 0 -46 -39 -124 -64 -129 -20 -3 -20 4 6 67 12 31 11 35 -9 50 -95 74 -93
72 -93 108 0 37 36 84 65 84 19 0 19 -7 -4 -50 -22 -40 -13 -71 25 -89 27 -12
28 -10 43 44 10 39 64 115 81 115 5 0 11 -4 14 -8z m-1161 -14 c27 -20 79
-175 67 -199 -6 -10 -16 -19 -23 -20 -144 -5 -140 -6 -164 30 -13 19 -23 46
-23 62 0 35 43 71 79 67 21 -2 26 -8 27 -33 0 -33 15 -65 39 -85 26 -22 30 -2
10 53 -31 87 -43 100 -86 94 -47 -6 -97 -41 -105 -71 -7 -29 31 -124 59 -149
16 -14 30 -16 70 -11 40 6 49 4 45 -7 -11 -33 -105 -52 -147 -29 -10 5 -32 48
-50 100 -33 90 -33 90 -14 123 35 62 170 108 216 75z m283 -14 c7 -28 -9 -74
-26 -74 -6 0 -15 11 -20 25 -12 31 -22 31 -57 1 -27 -23 -28 -29 -26 -101 1
-42 7 -83 14 -91 24 -29 113 -9 124 27 10 29 -4 42 -38 35 -31 -6 -57 7 -57
29 0 16 86 28 111 15 10 -6 25 -23 33 -38 15 -26 15 -23 16 53 0 101 7 125 32
125 20 0 20 -5 16 -132 -5 -145 -11 -168 -39 -168 -15 0 -19 7 -19 36 0 33 -1
34 -17 18 -50 -49 -174 -72 -205 -36 -9 10 -18 48 -22 94 -8 91 3 120 61 165
65 52 109 58 119 17z m383 7 c26 -17 2 -28 -71 -34 -40 -3 -81 -8 -90 -12 -36
-14 -34 -85 3 -85 10 0 38 5 62 12 24 6 52 8 62 5 30 -12 -1 -35 -65 -48 l-58
-11 -5 -44 c-5 -47 -30 -84 -55 -84 -9 0 -12 6 -7 18 22 54 24 77 10 105 -8
17 -15 56 -15 88 0 63 9 74 75 90 43 10 138 10 154 0z m260 0 c24 -16 1 -31
-47 -31 -114 -1 -167 -36 -133 -89 7 -11 19 -12 75 0 52 10 69 10 79 0 17 -17
-3 -28 -75 -42 l-58 -12 0 -37 c0 -23 -8 -48 -21 -64 -24 -30 -55 -36 -44 -8
22 54 24 77 10 105 -8 17 -15 56 -15 88 0 50 3 60 23 70 45 25 178 38 206 20z"/>
<path d="M2023 1433 c-5 -2 -8 -16 -5 -32 4 -29 4 -29 -56 -33 l-61 -3 -6 33
c-5 29 -9 32 -40 32 -33 0 -35 -2 -35 -35 l0 -36 -62 3 c-62 3 -63 3 -66 33
-3 29 -5 31 -37 27 l-33 -4 -4 -64 c-2 -37 1 -65 7 -67 6 -2 98 0 205 4 107 4
213 8 235 8 l40 1 -3 48 c-4 82 -6 86 -39 87 -17 0 -35 -1 -40 -2z"/>
</g>
</svg>
